{"title":"Transformers Dark of the Moon (2011) 1080p BluRay {DD 5.1 Triple","uid":9734423,"size":4146742188,"categoryP":"video","categoryS":"hd___movies","magnet":"?xt=urn:btih:fe9482d3a30cb445731a66d2e366b2fd41b8936f&amp;dn=Transformers+Dark+of+the+Moon+%282011%29+1080p+BluRay+%7BDD+5.1+Triple&amp;tr=udp%3A%2F%2Ftracker.openbittorrent.com%3A80&amp;tr=udp%3A%2F%2Fopen.demonii.com%3A1337&amp;tr=udp%3A%2F%2Ftracker.coppersurfer.tk%3A6969&amp;tr=udp%3A%2F%2Fexodus.desync.com%3A6969","seeders":2,"leechers":2,"uploader":"SaNRiM","files":-1,"time":1394425129,"description":"Storyline\n\nAutobots Bumblebee, Ratchet, Ironhide, Mirage (aka Dino), Wheeljack (aka Que) and Sideswipe led by Optimus Prime, are back in action taking on the evil Decepticons, who are eager to avenge their recent defeat. The Autobots and Decepticons become involved in a perilous space race between the United States and Russia, to reach a hidden Cybertronian spacecraft on the moon and learn its secrets, and once again Sam Witwicky has to come to the aid of his robot friends. The new villain Shockwave is on the scene while the Autobots and Decepticons continue to battle it out on Earth.\n\n\n\nTorrent Info\n\nGeneral\n\nUnique ID : 183680406939537600336885775644624230037 (0x8A2F8F416F5C1B8C8496122E23C51695)\nComplete name : Transformers Dark of the Moon (2011) 1080p BluRay {DD 5.1 Triple Audio} {6Ch.} [Hindi Original-Tamil-English] ~SaNRiM~.mkv\nFormat : Matroska\nFormat version : Version 4 / Version 2\nFile size : 3.85 GiB\nDuration : 2h 34mn\nOverall bit rate : 3 569 Kbps\nEncoded date : UTC 2014-03-10 01:59:52\nWriting library : libebml v1.3.0 + libmatroska v1.4.1\n\n\nVideo\n\nID : 1\nFormat : AVC\nFormat/Info : Advanced Video Codec\nFormat profile : &lt;a class=&quot;__cf_email__&quot; href=&quot;/cdn-cgi/l/email-protection&quot; data-cfemail=&quot;aae2c3cdc2eae69e849a&quot;&gt;[email&amp;#160;protected]&lt;/a&gt;&lt;script cf-hash='f9e31' type=&quot;text/javascript&quot;&gt;\n/* &lt;![CDATA[ */!function(){try{var t=&quot;currentScript&quot;in document?document.currentScript:function(){for(var t=document.getElementsByTagName(&quot;script&quot;),e=t.length;e--;)if(t[e].getAttribute(&quot;cf-hash&quot;))return t[e]}();if(t&amp;&amp;t.previousSibling){var e,r,n,i,c=t.previousSibling,a=c.getAttribute(&quot;data-cfemail&quot;);if(a){for(e=&quot;&quot;,r=parseInt(a.substr(0,2),16),n=2;a.length-n;n+=2)i=parseInt(a.substr(n,2),16)^r,e+=String.fromCharCode(i);e=document.createTextNode(e),c.parentNode.replaceChild(e,c)}}}catch(u){}}();/* ]]&gt; */&lt;/script&gt;\nFormat settings, CABAC : Yes\nFormat settings, ReFrames : 4 frames\nCodec ID : V_MPEG4/ISO/AVC\nDuration : 2h 34mn\nBit rate : 2 225 Kbps\nWidth : 1 920 pixels\nHeight : 800 pixels\nDisplay aspect ratio : 2.40:1\nFrame rate mode : Constant\nFrame rate : 23.976 fps\nColor space : YUV\nChroma subsampling : 4:2:0\nBit depth : 8 bits\nScan type : Progressive\nBits/(Pixel*Frame) : 0.060\nStream size : 2.32 GiB (60%)\nTitle : ~SaNRiM~\nWriting library : x264 core 128 r2216 198a7ea\nLanguage : English\nDefault : Yes\nForced : No\n\n\nAudio #1\n\nID : 2\nFormat : AC-3\nFormat/Info : Audio Coding 3\nMode extension : CM (complete main)\nFormat settings, Endianness : Big\nCodec ID : A_AC3\nDuration : 2h 34mn\nBit rate mode : Constant\nBit rate : 448 Kbps\nChannel(s) : 6 channels\nChannel positions : Front: L C R, Side: L R, LFE\nSampling rate : 48.0 KHz\nBit depth : 16 bits\nCompression mode : Lossy\nStream size : 495 MiB (13%)\nTitle : ~SaNRiM~\nLanguage : Hindi\nDefault : Yes\nForced : No\n\n\nAudio #2\n\nID : 3\nFormat : AC-3\nFormat/Info : Audio Coding 3\nMode extension : CM (complete main)\nFormat settings, Endianness : Big\nCodec ID : A_AC3\nDuration : 2h 34mn\nBit rate mode : Constant\nBit rate : 448 Kbps\nChannel(s) : 6 channels\nChannel positions : Front: L C R, Side: L R, LFE\nSampling rate : 48.0 KHz\nBit depth : 16 bits\nCompression mode : Lossy\nStream size : 495 MiB (13%)\nTitle : ~SaNRiM~\nLanguage : Tamil\nDefault : No\nForced : No\n\n\nAudio #3\n\nID : 4\nFormat : AC-3\nFormat/Info : Audio Coding 3\nMode extension : CM (complete main)\nFormat settings, Endianness : Big\nCodec ID : A_AC3\nDuration : 2h 34mn\nBit rate mode : Constant\nBit rate : 448 Kbps\nChannel(s) : 6 channels\nChannel positions : Front: L C R, Side: L R, LFE\nSampling rate : 48.0 KHz\nBit depth : 16 bits\nCompression mode : Lossy\nStream size : 495 MiB (13%)\nTitle : ~SaNRiM~\nLanguage : English\nDefault : No\nForced : No\n\n\n\nScreens\n &lt;a href=&quot;\nhttp://someimage.com/E6gHMM1&quot; rel=&quot;nofollow&quot; target=&quot;_NEW&quot;&gt;\nhttp://someimage.com/E6gHMM1&lt;/a&gt; &lt;a href=&quot;\nhttp://someimage.com/17M8rHR&quot; rel=&quot;nofollow&quot; target=&quot;_NEW&quot;&gt;\nhttp://someimage.com/17M8rHR&lt;/a&gt; &lt;a href=&quot;\nhttp://someimage.com/CJkZ7Vd&quot; rel=&quot;nofollow&quot; target=&quot;_NEW&quot;&gt;\nhttp://someimage.com/CJkZ7Vd&lt;/a&gt; &lt;a href=&quot;\nhttp://someimage.com/5If3diM&quot; rel=&quot;nofollow&quot; target=&quot;_NEW&quot;&gt;\nhttp://someimage.com/5If3diM&lt;/a&gt; &lt;a href=&quot;\nhttp://someimage.com/iepvfVn&quot; rel=&quot;nofollow&quot; target=&quot;_NEW&quot;&gt;\nhttp://someimage.com/iepvfVn&lt;/a&gt; &lt;a href=&quot;\nhttp://someimage.com/J6tOO3J&quot; rel=&quot;nofollow&quot; target=&quot;_NEW&quot;&gt;\nhttp://someimage.com/J6tOO3J&lt;/a&gt; &lt;a href=&quot;\nhttp://someimage.com/la7OyUa&quot; rel=&quot;nofollow&quot; target=&quot;_NEW&quot;&gt;\nhttp://someimage.com/la7OyUa&lt;/a&gt; &lt;a href=&quot;\nhttp://someimage.com/EgYxTv3&quot; rel=&quot;nofollow&quot; target=&quot;_NEW&quot;&gt;\nhttp://someimage.com/EgYxTv3&lt;/a&gt; &lt;a href=&quot;\nhttp://someimage.com/WVtNtPK&quot; rel=&quot;nofollow&quot; target=&quot;_NEW&quot;&gt;\nhttp://someimage.com/WVtNtPK&lt;/a&gt; &lt;a href=&quot;\nhttp://someimage.com/5Q6RBda&quot; rel=&quot;nofollow&quot; target=&quot;_NEW&quot;&gt;\nhttp://someimage.com/5Q6RBda&lt;/a&gt; &lt;a href=&quot;\nhttp://someimage.com/EqZDODC&quot; rel=&quot;nofollow&quot; target=&quot;_NEW&quot;&gt;\nhttp://someimage.com/EqZDODC&lt;/a&gt; &lt;a href=&quot;\nhttp://someimage.com/viR84HE&quot; rel=&quot;nofollow&quot; target=&quot;_NEW&quot;&gt;\nhttp://someimage.com/viR84HE&lt;/a&gt; &lt;a href=&quot;\nhttp://someimage.com/ilv9zhw&quot; rel=&quot;nofollow&quot; target=&quot;_NEW&quot;&gt;\nhttp://someimage.com/ilv9zhw&lt;/a&gt; &lt;a href=&quot;\nhttp://someimage.com/PVeUpRn&quot; rel=&quot;nofollow&quot; target=&quot;_NEW&quot;&gt;\nhttp://someimage.com/PVeUpRn&lt;/a&gt; &lt;a href=&quot;\nhttp://someimage.com/q0ySEnj&quot; rel=&quot;nofollow&quot; target=&quot;_NEW&quot;&gt;\nhttp://someimage.com/q0ySEnj&lt;/a&gt; &lt;a href=&quot;\nhttp://someimage.com/xXeBQdC&quot; rel=&quot;nofollow&quot; target=&quot;_NEW&quot;&gt;\nhttp://someimage.com/xXeBQdC&lt;/a&gt; &lt;a href=&quot;\nhttp://someimage.com/7jNqpXA&quot; rel=&quot;nofollow&quot; target=&quot;_NEW&quot;&gt;\nhttp://someimage.com/7jNqpXA&lt;/a&gt; &lt;a href=&quot;\nhttp://someimage.com/fLEpgSl&quot; rel=&quot;nofollow&quot; target=&quot;_NEW&quot;&gt;\nhttp://someimage.com/fLEpgSl&lt;/a&gt; &lt;a href=&quot;\nhttp://someimage.com/NJ4OhRx&quot; rel=&quot;nofollow&quot; target=&quot;_NEW&quot;&gt;\nhttp://someimage.com/NJ4OhRx&lt;/a&gt; &lt;a href=&quot;\nhttp://someimage.com/YriIJiE&quot; rel=&quot;nofollow&quot; target=&quot;_NEW&quot;&gt;\nhttp://someimage.com/YriIJiE&lt;/a&gt; &lt;a href=&quot;\nhttp://someimage.com/hD6a1Sq&quot; rel=&quot;nofollow&quot; target=&quot;_NEW&quot;&gt;\nhttp://someimage.com/hD6a1Sq&lt;/a&gt; &lt;a href=&quot;\nhttp://someimage.com/tjDzRzk&quot; rel=&quot;nofollow&quot; target=&quot;_NEW&quot;&gt;\nhttp://someimage.com/tjDzRzk&lt;/a&gt; &lt;a href=&quot;\nhttp://someimage.com/IP4A6vQ&quot; rel=&quot;nofollow&quot; target=&quot;_NEW&quot;&gt;\nhttp://someimage.com/IP4A6vQ&lt;/a&gt; &lt;a href=&quot;\nhttp://someimage.com/YG5jAiI&quot; rel=&quot;nofollow&quot; target=&quot;_NEW&quot;&gt;\nhttp://someimage.com/YG5jAiI&lt;/a&gt;\n\n\n\n                  If you like my work please comment\n                          Any request? Just PM me\n                       Please seed long after download\n                         Thank you &amp; enjoy the best\n                                 ~SaNRiM~","torrent":{"xt":"urn:btih:fe9482d3a30cb445731a66d2e366b2fd41b8936f","amp;dn":"Transformers+Dark+of+the+Moon+%282011%29+1080p+BluRay+%7BDD+5.1+Triple","amp;tr":["udp%3A%2F%2Ftracker.openbittorrent.com%3A80","udp%3A%2F%2Fopen.demonii.com%3A1337","udp%3A%2F%2Ftracker.coppersurfer.tk%3A6969","udp%3A%2F%2Fexodus.desync.com%3A6969"],"infoHash":"fe9482d3a30cb445731a66d2e366b2fd41b8936f","infoHashBuffer":{"type":"Buffer","data":[254,148,130,211,163,12,180,69,115,26,102,210,227,102,178,253,65,184,147,111]},"announce":[],"urlList":[]}}